<?xml version="1.0" encoding="utf-8"?>
<!-- Generator: Adobe Illustrator 25.0.1, SVG Export Plug-In . SVG Version: 6.00 Build 0)  -->
<svg version="1.1" id="レイヤー_1" xmlns="http://www.w3.org/2000/svg" xmlns:xlink="http://www.w3.org/1999/xlink" x="0px"
	 y="0px" viewBox="0 0 640 320" style="enable-background:new 0 0 640 320;" xml:space="preserve">
<style type="text/css">
	.st0{enable-background:new    ;}
	.st1{fill:#494949;}
	.st2{fill:#B5B5B5;}
	.st3{fill:#C5C5C5;}
	.st4{fill:#777777;}
	.st5{fill:#757575;}
	.st6{fill:#9C9C9C;}
	.st7{fill:#404040;}
	.st8{fill:#A9A9A9;}
	.st9{fill:#6A6A6A;}
	.st10{fill:#666666;}
	.st11{fill:#626262;}
	.st12{fill:#888888;}
	.st13{fill:#9A9A9A;}
	.st14{fill:#8B8B8B;}
	.st15{fill:#A1A1A1;}
	.st16{fill:#616161;}
	.st17{fill:#ADADAD;}
	.st18{fill:#C9C9C9;}
	.st19{fill:#B3B3B3;}
	.st20{fill:#6D6D6D;}
	.st21{fill:#575757;}
	.st22{fill:#444444;}
	.st23{fill:#7E7E7E;}
	.st24{fill:#454545;}
	.st25{fill:#EAEAEA;}
	.st26{fill:#808080;}
	.st27{fill:#7F7F7F;}
	.st28{fill:#6E6E6E;}
</style>
<g>
	<g>
		<g class="st0">
			<g>
				<polygon class="st1" points="354.3,157.9 356.5,160.6 327.5,174.9 325.3,172.2 				"/>
			</g>
			<g>
				<polygon class="st2" points="354.3,157.9 356.5,160.6 351.8,191 349.6,188.3 				"/>
			</g>
			<g>
				<polygon class="st3" points="354.3,157.9 349.6,188.3 325.3,172.2 				"/>
			</g>
			<g>
				<polygon class="st4" points="349.6,188.3 351.8,191 327.5,174.9 325.3,172.2 				"/>
			</g>
			<g>
				<polygon points="348.7,189.6 350.9,192.2 326.5,176.1 324.4,173.4 				"/>
			</g>
			<g>
				<polygon class="st5" points="348.7,189.6 350.9,192.2 321.8,206.5 319.7,203.8 				"/>
			</g>
			<g>
				<polygon points="355.8,158 358,160.7 353.2,191.1 351.1,188.4 				"/>
			</g>
			<g>
				<polygon points="349.2,190.8 351.4,193.5 322.4,207.8 320.2,205.1 				"/>
			</g>
			<g>
				<polygon class="st1" points="380.1,174.1 382.3,176.8 353.2,191.1 351.1,188.4 				"/>
			</g>
			<g>
				<polygon points="380.6,175.4 382.8,178.1 353.8,192.3 351.6,189.7 				"/>
			</g>
			<g>
				<polygon class="st6" points="349.2,190.8 351.4,193.5 346.7,223.9 344.5,221.2 				"/>
			</g>
			<g>
				<polygon class="st7" points="375.9,205.8 378.1,208.5 353.8,192.3 351.6,189.7 				"/>
			</g>
			<g>
				<polygon points="375,207 350.7,190.9 346,221.3 344.5,221.2 349.2,190.8 320.2,205.1 319.7,203.8 348.7,189.6 324.4,173.4 
					325.3,172.2 349.6,188.3 354.3,157.9 355.8,158 351.1,188.4 380.1,174.1 380.6,175.4 351.6,189.7 375.9,205.8 				"/>
			</g>
			<g>
				<polygon class="st8" points="348.7,189.6 319.7,203.8 324.4,173.4 				"/>
			</g>
			<g>
				<polygon class="st9" points="380.1,174.1 351.1,188.4 355.8,158 				"/>
			</g>
			<g>
				<polygon points="380.1,174.1 382.3,176.8 382.8,178.1 380.6,175.4 				"/>
			</g>
			<g>
				<polygon class="st10" points="344.5,221.2 346.7,223.9 322.4,207.8 320.2,205.1 				"/>
			</g>
			<g>
				<polygon class="st8" points="349.2,190.8 344.5,221.2 320.2,205.1 				"/>
			</g>
			<g>
				<polygon points="350.7,190.9 352.9,193.5 348.1,224 346,221.3 				"/>
			</g>
			<g>
				<polygon points="346,221.3 348.1,224 346.7,223.9 344.5,221.2 				"/>
			</g>
			<g>
				<polygon class="st11" points="380.6,175.4 382.8,178.1 378.1,208.5 375.9,205.8 				"/>
			</g>
			<g>
				<polygon class="st9" points="380.6,175.4 375.9,205.8 351.6,189.7 				"/>
			</g>
			<g>
				<polygon points="375.9,205.8 378.1,208.5 377.2,209.7 375,207 				"/>
			</g>
			<g>
				<polygon points="375,207 377.2,209.7 352.9,193.5 350.7,190.9 				"/>
			</g>
			<g>
				<polygon class="st3" points="375,207 346,221.3 350.7,190.9 				"/>
			</g>
			<g>
				<polygon class="st12" points="375,207 377.2,209.7 348.1,224 346,221.3 				"/>
			</g>
		</g>
	</g>
</g>
<g>
	<g>
		<g class="st0">
			<g>
				<polygon class="st10" points="342.8,39.8 343.8,45.2 326,31.4 324.9,25.9 				"/>
			</g>
			<g>
				<polygon class="st13" points="353.8,20.2 354.8,25.7 343.8,45.2 342.8,39.8 				"/>
			</g>
			<g>
				<polygon points="355,20.4 356.1,25.9 345.1,45.5 344,40 				"/>
			</g>
			<g>
				<polygon class="st14" points="372.8,34.3 373.9,39.7 345.1,45.5 344,40 				"/>
			</g>
			<g>
				<polygon points="341.7,40.5 342.7,45.9 324.9,32.1 323.9,26.6 				"/>
			</g>
			<g>
				<polygon class="st15" points="341.7,40.5 342.7,45.9 313.9,51.7 312.9,46.2 				"/>
			</g>
			<g>
				<polygon points="373,35.2 374.1,40.6 345.3,46.4 344.2,40.9 				"/>
			</g>
			<g>
				<polygon points="341.9,41.4 342.9,46.8 314.1,52.6 313,47.1 				"/>
			</g>
			<g>
				<polygon class="st4" points="362,54.7 363.1,60.2 345.3,46.4 344.2,40.9 				"/>
			</g>
			<g>
				<polygon class="st16" points="341.9,41.4 342.9,46.8 331.9,66.4 330.9,60.9 				"/>
			</g>
			<g>
				<polygon points="312.9,46.2 341.7,40.5 323.9,26.6 324.9,25.9 342.8,39.8 353.8,20.2 355,20.4 344,40 372.8,34.3 373,35.2 
					344.2,40.9 362,54.7 360.9,55.4 343.1,41.6 332.1,61.2 330.9,60.9 341.9,41.4 313,47.1 				"/>
			</g>
			<g>
				<polygon class="st17" points="342.8,39.8 324.9,25.9 353.8,20.2 				"/>
			</g>
			<g>
				<polygon class="st17" points="344,40 355,20.4 372.8,34.3 				"/>
			</g>
			<g>
				<polygon class="st18" points="312.9,46.2 323.9,26.6 341.7,40.5 				"/>
			</g>
			<g>
				<polygon points="313,47.1 314.1,52.6 313.9,51.7 312.9,46.2 				"/>
			</g>
			<g>
				<polygon class="st19" points="373,35.2 374.1,40.6 363.1,60.2 362,54.7 				"/>
			</g>
			<g>
				<polygon class="st16" points="373,35.2 374.1,40.6 363.1,60.2 362,54.7 				"/>
			</g>
			<g>
				<polygon class="st18" points="362,54.7 344.2,40.9 373,35.2 				"/>
			</g>
			<g>
				<polygon class="st7" points="330.9,60.9 331.9,66.4 314.1,52.6 313,47.1 				"/>
			</g>
			<g>
				<polygon class="st20" points="330.9,60.9 313,47.1 341.9,41.4 				"/>
			</g>
			<g>
				<polygon points="362,54.7 363.1,60.2 362,60.9 360.9,55.4 				"/>
			</g>
			<g>
				<polygon points="360.9,55.4 362,60.9 344.2,47 343.1,41.6 				"/>
			</g>
			<g>
				<polygon points="343.1,41.6 344.2,47 333.2,66.6 332.1,61.2 				"/>
			</g>
			<g>
				<polygon class="st21" points="360.9,55.4 362,60.9 333.2,66.6 332.1,61.2 				"/>
			</g>
			<g>
				<polygon class="st20" points="332.1,61.2 343.1,41.6 360.9,55.4 				"/>
			</g>
			<g>
				<polygon points="332.1,61.2 333.2,66.6 331.9,66.4 330.9,60.9 				"/>
			</g>
		</g>
	</g>
</g>
<g>
	<g>
		<g class="st0">
			<g>
				<polygon class="st22" points="340.7,93.7 338.4,97.3 309.5,111.2 311.9,107.6 				"/>
			</g>
			<g>
				<polygon class="st23" points="340.7,93.7 311.9,107.6 308.4,74.9 				"/>
			</g>
			<g>
				<polygon class="st7" points="311.9,107.6 309.5,111.2 306,78.5 308.4,74.9 				"/>
			</g>
			<g>
				<polygon points="341.7,95.1 339.3,98.7 310.5,112.6 312.8,109 				"/>
			</g>
			<g>
				<polygon class="st23" points="341.7,95.1 345.2,127.8 312.8,109 				"/>
			</g>
			<g>
				<polygon class="st24" points="345.2,127.8 342.8,131.4 310.5,112.6 312.8,109 				"/>
			</g>
			<g>
				<polygon points="310.2,107.5 307.8,111.1 304.4,78.4 306.7,74.8 				"/>
			</g>
			<g>
				<polygon points="344.5,129 342.1,132.7 309.8,113.9 312.2,110.3 				"/>
			</g>
			<g>
				<polygon class="st22" points="306.7,74.8 304.4,78.4 275.5,92.3 277.9,88.7 				"/>
			</g>
			<g>
				<polygon class="st25" points="306.7,74.8 310.2,107.5 277.9,88.7 				"/>
			</g>
			<g>
				<polygon class="st26" points="310.2,107.5 307.8,111.1 275.5,92.3 277.9,88.7 				"/>
			</g>
			<g>
				<polygon points="309.5,108.7 307.1,112.3 274.8,93.5 277.2,89.9 				"/>
			</g>
			<g>
				<polygon points="277.2,89.9 274.8,93.5 275.5,92.3 277.9,88.7 				"/>
			</g>
			<g>
				<polygon class="st27" points="344.5,129 342.1,132.7 313.3,146.6 315.6,142.9 				"/>
			</g>
			<g>
				<polygon class="st25" points="344.5,129 315.6,142.9 312.2,110.3 				"/>
			</g>
			<g>
				<polygon class="st4" points="315.6,142.9 313.3,146.6 309.8,113.9 312.2,110.3 				"/>
			</g>
			<g>
				<polygon points="315.6,142.9 313.3,146.6 311.6,146.4 314,142.8 				"/>
			</g>
			<g>
				<polygon points="314,142.8 311.6,146.4 308.1,113.7 310.5,110.1 				"/>
			</g>
			<g>
				<polygon class="st10" points="280.7,122.6 278.3,126.2 274.8,93.5 277.2,89.9 				"/>
			</g>
			<g>
				<polygon class="st20" points="309.5,108.7 307.1,112.3 278.3,126.2 280.7,122.6 				"/>
			</g>
			<g>
				<polygon class="st18" points="309.5,108.7 280.7,122.6 277.2,89.9 				"/>
			</g>
			<g>
				<polygon points="310.5,110.1 308.1,113.7 279.3,127.6 281.6,124 				"/>
			</g>
			<g>
				<polygon points="281.6,124 279.3,127.6 278.3,126.2 280.7,122.6 				"/>
			</g>
			<g>
				<polygon points="344.5,129 312.2,110.3 315.6,142.9 314,142.8 310.5,110.1 281.6,124 280.7,122.6 309.5,108.7 277.2,89.9 
					277.9,88.7 310.2,107.5 306.7,74.8 308.4,74.9 311.9,107.6 340.7,93.7 341.7,95.1 312.8,109 345.2,127.8 				"/>
			</g>
			<g>
				<polygon class="st18" points="310.5,110.1 314,142.8 281.6,124 				"/>
			</g>
			<g>
				<polygon class="st28" points="314,142.8 311.6,146.4 279.3,127.6 281.6,124 				"/>
			</g>
		</g>
	</g>
</g>
</svg>
