<?xml version="1.0" encoding="utf-8"?>
<!-- Generator: Adobe Illustrator 25.0.1, SVG Export Plug-In . SVG Version: 6.00 Build 0)  -->
<svg version="1.1" id="レイヤー_1" xmlns="http://www.w3.org/2000/svg" xmlns:xlink="http://www.w3.org/1999/xlink" x="0px"
	 y="0px" viewBox="0 0 640 320" style="enable-background:new 0 0 640 320;" xml:space="preserve">
<style type="text/css">
	.st0{enable-background:new    ;}
	.st1{fill:#777777;}
	.st2{fill:#D8D8D8;}
	.st3{fill:#ABABAB;}
	.st4{fill:#747474;}
	.st5{fill:#525252;}
	.st6{fill:#BABABA;}
	.st7{fill:#838383;}
	.st8{fill:#5C5C5C;}
	.st9{fill:#404040;}
	.st10{fill:#939393;}
	.st11{fill:#666666;}
	.st12{fill:#989898;}
	.st13{fill:#717171;}
	.st14{fill:#C6C6C6;}
	.st15{fill:#7C7C7C;}
	.st16{fill:#E6E6E6;}
	.st17{fill:#474747;}
</style>
<g>
	<g>
		<g class="st0">
			<g>
				<polygon class="st1" points="322.3,156.9 319.7,162.9 323.5,141.4 326,135.4 				"/>
			</g>
			<g>
				<polygon class="st2" points="326,135.4 358.8,158.4 322.3,156.9 				"/>
			</g>
			<g>
				<polygon class="st3" points="358.8,158.4 356.3,164.4 319.7,162.9 322.3,156.9 				"/>
			</g>
			<g>
				<polygon points="320.4,156.3 317.9,162.2 321.6,140.7 324.1,134.8 				"/>
			</g>
			<g>
				<polygon class="st4" points="287.5,133.3 324.1,134.8 320.4,156.3 				"/>
			</g>
			<g>
				<polygon class="st5" points="320.4,156.3 317.9,162.2 285,139.2 287.5,133.3 				"/>
			</g>
			<g>
				<polygon points="359.6,159.6 357.1,165.6 320.5,164.1 323,158.1 				"/>
			</g>
			<g>
				<polygon points="319.3,156.8 316.8,162.8 283.9,139.8 286.4,133.8 				"/>
			</g>
			<g>
				<polygon class="st6" points="323,158.1 359.6,159.6 355.9,181.1 				"/>
			</g>
			<g>
				<polygon class="st7" points="355.9,181.1 353.4,187.1 320.5,164.1 323,158.1 				"/>
			</g>
			<g>
				<polygon points="354.8,181.7 352.3,187.6 319.4,164.6 321.9,158.7 				"/>
			</g>
			<g>
				<polygon points="355.9,181.1 353.4,187.1 352.3,187.6 354.8,181.7 				"/>
			</g>
			<g>
				<polygon class="st8" points="319.3,156.8 316.8,162.8 280.2,161.3 282.7,155.3 				"/>
			</g>
			<g>
				<polygon class="st9" points="282.7,155.3 280.2,161.3 283.9,139.8 286.4,133.8 				"/>
			</g>
			<g>
				<polygon class="st4" points="286.4,133.8 319.3,156.8 282.7,155.3 				"/>
			</g>
			<g>
				<polygon points="283.5,156.5 281,162.5 280.2,161.3 282.7,155.3 				"/>
			</g>
			<g>
				<polygon points="320.1,158 317.6,164 281,162.5 283.5,156.5 				"/>
			</g>
			<g>
				<polygon class="st10" points="354.8,181.7 352.3,187.6 315.7,186.1 318.2,180.2 				"/>
			</g>
			<g>
				<polygon class="st11" points="318.2,180.2 315.7,186.1 319.4,164.6 321.9,158.7 				"/>
			</g>
			<g>
				<polygon class="st6" points="321.9,158.7 354.8,181.7 318.2,180.2 				"/>
			</g>
			<g>
				<polygon points="316.3,179.5 313.8,185.5 317.6,164 320.1,158 				"/>
			</g>
			<g>
				<polygon class="st2" points="283.5,156.5 320.1,158 316.3,179.5 				"/>
			</g>
			<g>
				<polygon class="st5" points="316.3,179.5 313.8,185.5 281,162.5 283.5,156.5 				"/>
			</g>
			<g>
				<polygon class="st12" points="316.3,179.5 313.8,185.5 281,162.5 283.5,156.5 				"/>
			</g>
			<g>
				<polygon points="326,135.4 322.3,156.9 358.8,158.4 359.6,159.6 323,158.1 355.9,181.1 354.8,181.7 321.9,158.7 318.2,180.2 
					316.3,179.5 320.1,158 283.5,156.5 282.7,155.3 319.3,156.8 286.4,133.8 287.5,133.3 320.4,156.3 324.1,134.8 				"/>
			</g>
			<g>
				<polygon points="318.2,180.2 315.7,186.1 313.8,185.5 316.3,179.5 				"/>
			</g>
		</g>
	</g>
</g>
<g>
	<g>
		<g class="st0">
			<g>
				<polygon class="st9" points="392.8,94.9 391.1,98.8 381.3,76.2 382.9,72.3 				"/>
			</g>
			<g>
				<polygon class="st13" points="381.9,71.5 380.3,75.4 363.7,91.5 365.4,87.6 				"/>
			</g>
			<g>
				<polygon class="st11" points="365.4,87.6 363.7,91.5 353.9,68.9 355.5,64.9 				"/>
			</g>
			<g>
				<polygon class="st14" points="365.4,87.6 355.5,64.9 381.9,71.5 				"/>
			</g>
			<g>
				<polygon points="382.9,72.3 381.3,76.2 364.7,92.3 366.4,88.4 				"/>
			</g>
			<g>
				<polygon class="st7" points="392.8,94.9 391.1,98.8 364.7,92.3 366.4,88.4 				"/>
			</g>
			<g>
				<polygon points="364.3,87.8 362.6,91.8 352.7,69.1 354.4,65.2 				"/>
			</g>
			<g>
				<polygon points="392.6,96 391,99.9 364.5,93.3 366.2,89.4 				"/>
			</g>
			<g>
				<polygon class="st13" points="364.3,87.8 362.6,91.8 336.2,85.2 337.8,81.3 				"/>
			</g>
			<g>
				<polygon points="364.1,88.9 362.4,92.8 336,86.3 337.7,82.3 				"/>
			</g>
			<g>
				<polygon class="st9" points="376.1,112.1 374.4,116 364.5,93.3 366.2,89.4 				"/>
			</g>
			<g>
				<polygon class="st7" points="364.1,88.9 362.4,92.8 345.9,108.9 347.5,105 				"/>
			</g>
			<g>
				<polygon points="374.9,112.3 373.3,116.3 363.4,93.6 365.1,89.7 				"/>
			</g>
			<g>
				<polygon points="365.1,89.7 363.4,93.6 346.9,109.7 348.5,105.8 				"/>
			</g>
			<g>
				<polygon points="348.5,105.8 346.9,109.7 345.9,108.9 347.5,105 				"/>
			</g>
			<g>
				<polygon class="st15" points="374.9,112.3 348.5,105.8 365.1,89.7 				"/>
			</g>
			<g>
				<polygon points="347.5,105 364.1,88.9 337.7,82.3 337.8,81.3 364.3,87.8 354.4,65.2 355.5,64.9 365.4,87.6 381.9,71.5 
					382.9,72.3 366.4,88.4 392.8,94.9 392.6,96 366.2,89.4 376.1,112.1 374.9,112.3 365.1,89.7 348.5,105.8 				"/>
			</g>
			<g>
				<polygon class="st16" points="382.9,72.3 366.4,88.4 392.8,94.9 				"/>
			</g>
			<g>
				<polygon points="337.7,82.3 336,86.3 336.2,85.2 337.8,81.3 				"/>
			</g>
			<g>
				<polygon class="st14" points="364.3,87.8 337.8,81.3 354.4,65.2 				"/>
			</g>
			<g>
				<polygon class="st15" points="376.1,112.1 366.2,89.4 392.6,96 				"/>
			</g>
			<g>
				<polygon class="st17" points="392.6,96 391,99.9 374.4,116 376.1,112.1 				"/>
			</g>
			<g>
				<polygon points="376.1,112.1 374.4,116 373.3,116.3 374.9,112.3 				"/>
			</g>
			<g>
				<polygon class="st1" points="347.5,105 345.9,108.9 336,86.3 337.7,82.3 				"/>
			</g>
			<g>
				<polygon class="st16" points="347.5,105 337.7,82.3 364.1,88.9 				"/>
			</g>
			<g>
				<polygon class="st17" points="374.9,112.3 373.3,116.3 346.9,109.7 348.5,105.8 				"/>
			</g>
		</g>
	</g>
</g>
</svg>
