<svg width="30" height="30" viewBox="0 0 30 30" fill="none" xmlns="http://www.w3.org/2000/svg">
<path fill-rule="evenodd" clip-rule="evenodd" d="M11.9483 0H26.2709C27.9212 0 29.1354 1.27157 29.1354 3V18C29.1354 19.7284 27.9212 21 26.2709 21H20.5418V27C20.5418 28.7284 19.3277 30 17.6773 30H3.35475C1.70438 30 0.490234 28.7284 0.490234 27V12C0.490234 10.2716 1.70438 9 3.35475 9H9.08378V3C9.08378 1.27157 10.2979 0 11.9483 0ZM9.08378 12H3.35475V27H17.6773V21H11.9483C10.2979 21 9.08378 19.7284 9.08378 18V12ZM11.9483 3V18H26.2709V3H11.9483Z" fill="white"/>
</svg>
