<?xml version="1.0" encoding="utf-8"?>
<!-- Generator: Adobe Illustrator 25.0.1, SVG Export Plug-In . SVG Version: 6.00 Build 0)  -->
<svg version="1.1" id="レイヤー_1" xmlns="http://www.w3.org/2000/svg" xmlns:xlink="http://www.w3.org/1999/xlink" x="20px"
	 y="0px" viewBox="0 0 640 320" style="enable-background:new 0 0 640 320;" xml:space="preserve">
<style type="text/css">
	.st0{fill:#4B4B4B;}
</style>
<g>
	<path class="st0" d="M369.9,214.3c-0.5-1.9-1.2-3.6-2.1-5.1c-1.6-2.7-3.6-4.7-5.9-6.4c-1.7-1.2-3.5-2.2-5.4-3.1
		c-2.8-1.3-5.6-2.3-8.2-3.3c-2.6-1-5-1.9-6.9-3c-0.7-0.4-1.3-0.8-1.8-1.3c-0.8-0.7-1.4-1.4-1.8-2.2c-0.4-0.8-0.7-1.7-0.9-2.8
		c-0.1-0.8-0.1-1.5-0.1-2.2c0-2.1,0.3-3.9,0.7-5.8c1.2-1.3,2.2-2.9,3.3-4.8c1-1.9,2-4.1,2.9-6.7c0.6-0.3,1.2-0.6,1.8-1
		c1.4-0.9,2.7-2.2,3.8-4s2-3.9,2.6-6.5c0.2-0.7,0.2-1.5,0.2-2.2c0-1.5-0.4-2.9-1-4.2c-0.4-0.9-0.9-1.7-1.6-2.4
		c0.3-1.2,0.7-2.7,1-4.5c0.5-2.5,0.9-5.6,0.9-8.8c0-2.1-0.2-4.2-0.6-6.3c-0.3-1.6-0.8-3.1-1.4-4.6c-0.1-0.2-0.2-0.5-0.3-0.7h-56.8
		c-0.7,1.5-1.4,3.1-1.9,4.8c-0.7,2.5-1.1,5.2-1.1,8.2c0,1.9,0.2,3.8,0.5,5.9c0,0.1,0,0.3,0,0.4c0,0.3,0,0.5,0.1,0.8
		c0,0.4,0.1,0.8,0.1,1.2c0,0.2,0,0.3,0,0.5c0,0.1,0,0.1,0,0.2v0v0v0v0.2l0.5,2.2c-0.7,0.8-1.3,1.7-1.8,2.6c-0.7,1.4-1.1,2.9-1.1,4.5
		c0,0.7,0.1,1.4,0.2,2.2c0.4,1.8,0.9,3.3,1.6,4.7c0.9,2,2.1,3.6,3.5,4.8c1,0.9,2.1,1.6,3.2,2.1c1,2.6,1.9,4.8,2.9,6.7
		c1,1.9,2.1,3.5,3.3,4.8c0.4,1.8,0.7,3.7,0.7,5.8c0,0.7,0,1.5-0.1,2.2c-0.1,0.8-0.2,1.4-0.5,2c-0.4,0.9-0.9,1.6-1.6,2.4
		c-0.7,0.7-1.6,1.4-2.7,2c-1.1,0.6-2.4,1.2-3.7,1.8c-2.4,1-5.2,1.9-8,3c-2.1,0.8-4.2,1.8-6.2,3c-1.5,0.9-3,1.9-4.3,3.2
		c-2,1.8-3.7,4.1-4.9,7c-1.2,2.8-1.9,6.2-1.9,10.2c0,0.6,0.1,1.1,0.3,1.6c0.2,0.5,0.4,0.9,0.7,1.3c0.6,0.8,1.3,1.4,2.1,2.1
		c1.5,1.1,3.6,2.2,6.2,3.2c4,1.5,9.3,2.8,16.1,3.8c6.8,1,15.2,1.6,25.4,1.6c8.8,0,16.3-0.5,22.5-1.2c4.7-0.6,8.8-1.3,12.2-2.1
		c2.6-0.6,4.8-1.3,6.7-2.1c1.4-0.5,2.7-1.1,3.8-1.7c0.8-0.4,1.6-0.9,2.2-1.4c1-0.7,1.7-1.4,2.3-2.2c0.3-0.4,0.5-0.8,0.7-1.3
		c0.2-0.5,0.3-1,0.3-1.5C370.8,218.9,370.4,216.5,369.9,214.3z M315.5,216.2l-15-19.1c0.8-0.5,1.5-1,2.2-1.5c0.7-0.6,1.4-1.3,2-2
		l10.9,5.1l-2.3,3.9l3.6,3.8L315.5,216.2z M306.3,191c0.4-1,0.7-2.1,0.9-3.4c0.1-0.9,0.1-1.8,0.1-2.7c0-2.8-0.5-5.1-0.9-7.2
		l-0.1-0.6l-0.4-0.4c-1-1.1-2-2.5-3-4.3c-1-1.8-2-4.2-3-7l-0.3-0.9l-0.9-0.3c-0.6-0.2-1.3-0.5-1.9-1c-0.9-0.6-1.8-1.5-2.6-2.7
		c-0.8-1.2-1.5-2.9-2-5.2c-0.1-0.4-0.1-0.8-0.1-1.2c0-0.9,0.2-1.8,0.6-2.6c0.3-0.7,0.8-1.3,1.4-1.9c1,1.5,1.8,2.6,2.1,2.9
		c1,1,0.7,0.7,1,0.2c0,0,1.1-1.5,6.8-12.6c11.4,2.5,31.4-14.6,31.4-14.6s0.2,5.5,4.1,10.6c3.6,4.8,5.7,16.1,5.7,16.1
		s0.5-0.9,1.2-2.2c0.4,0.5,0.8,1.1,1.1,1.6c0.4,0.8,0.6,1.6,0.6,2.4c0,0.4,0,0.8-0.1,1.2c-0.3,1.5-0.8,2.8-1.3,3.8
		c-0.7,1.6-1.6,2.6-2.4,3.4c-0.9,0.8-1.8,1.3-2.8,1.7l-0.9,0.3l-0.3,0.9c-1,2.9-2,5.2-3,7c-1,1.9-2,3.2-3,4.3l-0.4,0.4l-0.1,0.6
		c-0.5,2.1-0.9,4.4-0.9,7.2c0,0.8,0,1.7,0.1,2.7c0.1,1.1,0.4,2.1,0.7,3.1c0,0,0,0.1,0.1,0.1l-12.9,6.8L306.3,191z M325.4,216.9
		l-1.5-10.6l3.6-3.8l-2.3-3.9l9.8-5.2c0.3,0.4,0.6,0.7,0.9,1c1,1,2.1,1.8,3.3,2.6L325.4,216.9z"/>
	<path class="st0" d="M278.6,106.7l13.9,6.1v7h56.4v-7l5.7-2.5v13c-1.2,0.2-2.1,1.2-2.1,2.4c0,1.1,0.7,2,1.7,2.3l-1.6,10.2
		c-0.1,0.7,0.1,1.4,0.5,1.9c0.4,0.5,1.1,0.8,1.8,0.8h4.3c0.7,0,1.3-0.3,1.8-0.8c0.4-0.5,0.6-1.2,0.5-1.9l-1.6-10.2
		c1-0.3,1.7-1.2,1.7-2.3c0-1.2-0.9-2.2-2.1-2.4v-15.1l3.5-1.5c0.7-0.3,1.1-1,1.1-1.7c0-0.7-0.4-1.4-1.1-1.7l-38.2-16.8
		c-1.3-0.6-2.6-0.8-4-0.8c-1.4,0-2.7,0.3-4,0.8l-38.2,16.8c-0.7,0.3-1.1,1-1.1,1.7C277.4,105.8,277.9,106.4,278.6,106.7z"/>
</g>
</svg>
