<?xml version="1.0" encoding="utf-8"?>
<!-- Generator: Adobe Illustrator 25.0.1, SVG Export Plug-In . SVG Version: 6.00 Build 0)  -->
<svg version="1.1" id="レイヤー_1" xmlns="http://www.w3.org/2000/svg" xmlns:xlink="http://www.w3.org/1999/xlink" x="0px"
	 y="0px" viewBox="0 0 640 320" style="enable-background:new 0 0 640 320;" xml:space="preserve">
<style type="text/css">
	.st0{fill:#4B4B4B;}
</style>
<g>
	<path class="st0" d="M369.9,204.5c-0.5-1.9-1.2-3.6-2.1-5.1c-1.6-2.7-3.6-4.7-5.9-6.4c-1.7-1.2-3.5-2.2-5.4-3.1
		c-2.8-1.3-5.6-2.3-8.2-3.3c-2.6-1-5-1.9-6.9-3c-0.7-0.4-1.3-0.8-1.8-1.3c-0.8-0.7-1.4-1.4-1.8-2.2c-0.4-0.8-0.7-1.7-0.9-2.8
		c-0.1-0.8-0.1-1.5-0.1-2.2c0-2.1,0.3-3.9,0.7-5.8c1.2-1.3,2.2-2.9,3.3-4.8c1-1.9,2-4.1,2.9-6.7c0.6-0.3,1.2-0.6,1.8-1
		c1.4-0.9,2.7-2.2,3.8-4c1.1-1.7,2-3.9,2.6-6.5c0.2-0.7,0.2-1.5,0.2-2.2c0-1.5-0.4-2.9-1-4.2c-0.4-0.9-0.9-1.7-1.6-2.4
		c0.3-1.2,0.7-2.7,1-4.5c0.5-2.5,0.9-5.6,0.9-8.8c0-2.1-0.2-4.2-0.6-6.3c-0.3-1.6-0.8-3.1-1.4-4.6c-1-2.2-2.4-4.4-4.4-6.1
		c-1.8-1.6-4.1-2.9-6.9-3.7c-1.2-1.4-2.4-2.6-3.6-3.6c-2.1-1.7-4.3-2.8-6.6-3.5c-2.3-0.7-4.5-0.9-6.8-0.9c-1.2,0-2.4,0.1-3.6,0.2
		c-1.1,0.1-2.1,0.2-2.9,0.4c-1.3,0.2-2.3,0.5-3.3,0.8c-1,0.3-2,0.7-3.2,1.2c-0.5,0.2-1.1,0.5-1.9,0.9c-1.3,0.7-3,1.7-4.9,3
		c-2.7,2-5.8,4.9-8.1,8.8c-1.2,1.9-2.2,4.2-2.9,6.6c-0.7,2.5-1.1,5.2-1.1,8.2c0,1.9,0.2,3.8,0.5,5.9c0,0.1,0,0.3,0,0.4
		c0,0.3,0,0.5,0.1,0.8c0,0.4,0.1,0.8,0.1,1.2c0,0.2,0,0.3,0,0.5c0,0.1,0,0.1,0,0.2v0v0v0v0.2l0.5,2.2c-0.7,0.8-1.3,1.7-1.8,2.6
		c-0.7,1.4-1.1,2.9-1.1,4.5c0,0.7,0.1,1.4,0.2,2.2c0.4,1.8,0.9,3.3,1.6,4.7c0.9,2,2.1,3.6,3.5,4.8c1,0.9,2.1,1.6,3.2,2.1
		c1,2.6,1.9,4.8,2.9,6.7c1,1.9,2.1,3.5,3.3,4.8c0.4,1.8,0.7,3.7,0.7,5.8c0,0.7,0,1.5-0.1,2.2c-0.1,0.8-0.2,1.4-0.5,2
		c-0.4,0.9-0.9,1.6-1.6,2.4c-0.7,0.7-1.6,1.4-2.7,2c-1.1,0.6-2.4,1.2-3.7,1.8c-2.4,1-5.2,1.9-8,3c-2.1,0.8-4.2,1.8-6.2,3
		c-1.5,0.9-3,1.9-4.3,3.2c-2,1.8-3.7,4.1-4.9,7c-1.2,2.8-1.9,6.2-1.9,10.2c0,0.6,0.1,1.1,0.3,1.6c0.2,0.5,0.4,0.9,0.7,1.3
		c0.6,0.8,1.3,1.4,2.1,2.1c1.5,1.1,3.6,2.2,6.2,3.2c4,1.5,9.3,2.8,16.1,3.8c6.8,1,15.2,1.6,25.4,1.6c8.8,0,16.3-0.5,22.5-1.2
		c4.7-0.6,8.8-1.3,12.2-2.1c2.6-0.6,4.8-1.3,6.7-2.1c1.4-0.5,2.7-1.1,3.8-1.7c0.8-0.4,1.6-0.9,2.2-1.4c1-0.7,1.7-1.4,2.3-2.2
		c0.3-0.4,0.5-0.8,0.7-1.3c0.2-0.5,0.3-1,0.3-1.5C370.8,209.1,370.4,206.7,369.9,204.5z M334.9,183.6c0.3,0.4,0.6,0.7,0.9,1
		c1,1,2.1,1.8,3.3,2.6c0,0-8,15.4-19.7,14c-11.8-1.4-18.9-13.9-18.9-13.9c0.8-0.5,1.5-1,2.2-1.5c0.7-0.6,1.4-1.3,2-2
		c0,0,8.9,6.4,14.7,6.3C329.3,190,334.9,183.6,334.9,183.6z M306.3,181.2c0.4-1,0.7-2.1,0.9-3.4c0.1-0.9,0.1-1.8,0.1-2.7
		c0-2.8-0.5-5.1-0.9-7.2l-0.1-0.6l-0.4-0.4c-1-1.1-2-2.5-3-4.3c-1-1.8-2-4.2-3-7l-0.3-0.9l-0.9-0.3c-0.6-0.2-1.3-0.5-1.9-1
		c-0.9-0.6-1.8-1.5-2.6-2.7c-0.8-1.2-1.5-2.9-2-5.2c-0.1-0.4-0.1-0.8-0.1-1.2c0-0.9,0.2-1.8,0.6-2.6c0.3-0.7,0.8-1.3,1.4-1.9
		c1,1.5,1.8,2.6,2.1,2.9c1,1,0.7,0.7,1,0.2c0,0,1.1-1.5,6.8-12.6c11.4,2.5,31.4-14.6,31.4-14.6s0.2,5.5,4.1,10.6
		c3.6,4.8,5.7,16.1,5.7,16.1s0.5-0.9,1.2-2.2c0.4,0.5,0.8,1.1,1.1,1.6c0.4,0.8,0.6,1.6,0.6,2.4c0,0.4,0,0.8-0.1,1.2
		c-0.3,1.5-0.8,2.8-1.3,3.8c-0.7,1.6-1.6,2.6-2.4,3.4c-0.9,0.8-1.8,1.3-2.8,1.7l-0.9,0.3l-0.3,0.9c-1,2.9-2,5.2-3,7
		c-1,1.9-2,3.2-3,4.3l-0.4,0.4l-0.1,0.6c-0.5,2.1-0.9,4.4-0.9,7.2c0,0.8,0,1.7,0.1,2.7c0.1,1.1,0.4,2.1,0.7,3.1c0,0,0,0.1,0.1,0.1
		c0,0-5.8,6.8-12.9,6.8C313.5,187.8,306.3,181.2,306.3,181.2z"/>
</g>
</svg>
