<?xml version="1.0" encoding="utf-8"?>
<!-- Generator: Adobe Illustrator 25.0.1, SVG Export Plug-In . SVG Version: 6.00 Build 0)  -->
<svg version="1.1" id="レイヤー_1" xmlns="http://www.w3.org/2000/svg" xmlns:xlink="http://www.w3.org/1999/xlink" x="0px"
	 y="0px" viewBox="0 0 640 320" style="enable-background:new 0 0 640 320;" xml:space="preserve">
<style type="text/css">
	.st0{fill:#4B4B4B;}
</style>
<g>
	<path class="st0" d="M320.1,158.7c1.2,4.2,7.7,4.8,11.6,1.1c-5.8,0.3-6.4-4-11.5-4.1v0l-0.1,0l-0.1,0v0c-5.1,0.1-5.8,4.4-11.5,4.1
		C312.3,163.4,318.8,162.8,320.1,158.7z"/>
	<path class="st0" d="M366.1,198.1c-3.1-4.7-7.9-7.3-12.3-8.9c-2.2-0.8-4.4-1.5-6.3-2c-1.9-0.5-3.6-1-4.7-1.4c-2-0.7-4-1.7-5.5-2.7
		c-0.7-0.5-1.3-1-1.6-1.5c-0.3-0.5-0.4-0.8-0.4-1c0-1.9,0-4.3,0-7.4c2.5-2.8,6.1-7.1,7.6-14c0.5-0.2,1-0.5,1.5-0.8
		c1.2-0.8,2.3-2.1,3.2-3.8c0.9-1.7,1.7-3.8,2.5-6.8c0.3-1,0.4-2,0.4-2.8c0-1.1-0.3-2.2-0.9-3.1c-0.1-0.2-0.3-0.3-0.4-0.4
		c2.2-4.8,3.2-9.5,3.2-14c0-4.6-1.1-8.9-3.1-12.4c-2-3.5-5-6.3-8.7-7.9c-0.2-0.1-0.6-0.3-1.2-0.7c-1-0.7-2.2-1.7-3.8-2.8
		c-2.3-1.7-5.2-3.7-8.6-5.3c-3.4-1.6-7.3-2.8-11.6-2.8c-0.5,0-1.1,0-1.6,0.1c-3.3,0.2-6.1,0.8-8.5,1.7c-3.6,1.4-6.3,3.5-8.6,6
		c-2.4,2.5-4.4,5.5-7,8.7c-2.6,3.3-3.5,7.3-3.5,11.3c0,4.2,1,8.4,2,12c0.8,2.5,1.6,4.7,2.2,6.3c-0.2,0.2-0.4,0.3-0.5,0.5
		c-0.5,0.8-0.7,1.8-0.7,2.8c0,0.9,0.2,1.8,0.4,2.8c1.1,3.9,2.1,6.4,3.5,8.3c0.7,0.9,1.4,1.7,2.2,2.2c0.5,0.3,1,0.6,1.5,0.8
		c1.5,6.9,5.1,11.2,7.6,14c0,3.1,0,5.5,0,7.4c0,0.2-0.1,0.6-0.5,1c-0.5,0.7-1.6,1.6-2.9,2.3c-1.3,0.7-2.8,1.4-4.1,1.8
		c-1.5,0.5-4,1.1-6.8,1.9c-4.2,1.2-9.1,2.9-13.1,6.4c-2,1.7-3.8,3.9-5,6.5c-1.2,2.7-1.9,5.9-1.9,9.6c0,0.9,0,1.8,0.1,2.7
		c0.1,0.6,0.3,1.2,0.6,1.6c0.6,0.8,1.3,1.4,2.2,2c1.6,1.1,3.8,2.1,6.7,3.1c8.5,3,22.6,5.8,40,5.8c14.2,0,26.1-1.8,34.7-4.2
		c4.3-1.2,7.7-2.4,10.1-3.7c1.2-0.6,2.2-1.3,3-2c0.4-0.3,0.7-0.7,1-1.2c0.3-0.4,0.5-1,0.6-1.6c0.1-0.9,0.1-1.8,0.1-2.7
		C369.5,205.2,368.2,201.2,366.1,198.1z M300.5,157.5l-0.2-1.1l-1.1-0.4c-0.7-0.2-1.2-0.5-1.6-0.8c-0.7-0.5-1.3-1.1-2-2.4
		c-0.7-1.3-1.4-3.2-2.2-6c-0.2-0.8-0.3-1.4-0.3-1.8c0-0.5,0.1-0.7,0.1-0.7c0-0.1,0.1-0.1,0.2-0.2l-0.6-1.5h0l0.4,1v0
		c0.3-0.1,0.7-0.2,1.1-0.2c0.8,0,1.7,0.2,2.4,0.4c0.4,0.1,0.7,0.2,0.9,0.3l0.2,0.1l0.1,0l0,0l2.4,1l-0.5-2.5c0,0-0.1-0.5-0.2-1.4
		c-0.2-1.3-0.6-3.3-0.8-5.3c-0.3-2-0.5-4-0.5-5.2c0-1.6,0.1-2.9,0.4-3.8c0.2-0.7,0.4-1.2,0.6-1.5c0.4-0.5,0.8-0.8,1.6-1.1
		c0.7-0.2,1.8-0.4,3.1-0.3c3.3,0,8.1,0.6,14.6,0.6c7,0,12.5-0.9,16.3-0.9c1.2,0,2.2,0.1,3,0.3c1.2,0.3,1.9,0.8,2.4,1.7
		c0.5,0.9,0.9,2.5,0.9,4.9c0,1.6-0.4,4.6-0.8,7.2c-0.2,1.3-0.4,2.5-0.5,3.3c-0.1,0.9-0.2,1.4-0.2,1.4l-0.5,2.5l2.4-1l0,0
		c0.2-0.1,2.1-0.8,3.6-0.8c0.4,0,0.7,0,1,0.1l0.4-1.3l-0.5,1.8c0.3,0.1,0.3,0.1,0.3,0.2c0,0.1,0.1,0.2,0.2,0.7c0,0.4-0.1,1-0.3,1.8
		c-1.1,3.7-2,5.9-2.9,7.1c-0.4,0.6-0.8,1-1.3,1.3c-0.4,0.3-1,0.6-1.6,0.8l-1.1,0.4l-0.2,1.1c-1.2,6.9-4.8,10.8-7.4,13.7l-0.5,0.5
		v0.7c0,3.5,0,6.1,0,8.1c0,0,0,0.1,0,0.1l-10.2,6.6h-1.4h-1.7l-9.7-6.3c0-0.1,0-0.3,0-0.4c0-2,0-4.6,0-8.1v-0.7l-0.5-0.5
		C305.3,168.2,301.7,164.4,300.5,157.5z M334,185.3l-5.9,8.9l-4.8-5.2l0.1-1.1l8.5-5.5c0.2,0.5,0.5,1,0.8,1.4
		C333,184.4,333.5,184.9,334,185.3z M316.4,189.2l-4.7,5l-5.9-8.9c0.5-0.4,1-0.9,1.4-1.4c0.3-0.4,0.5-0.8,0.7-1.2l8.5,5.5
		L316.4,189.2z M323.5,215.1l2.4-5l-2.8-16.3h-3.2h-3.2l-2.8,16.8l-11.7-22.8c0.8-0.4,1.6-0.8,2.3-1.3l7.1,10.6l5.1-5.4l0,0.6h3.2
		h3.2l0-0.7l5.2,5.6l7.1-10.6c0.4,0.3,0.8,0.5,1.2,0.7c0.3,0.2,0.7,0.3,1,0.5L323.5,215.1z"/>
</g>
</svg>
